<svg xmlns="http://www.w3.org/2000/svg" xmlns:xlink="http://www.w3.org/1999/xlink" viewBox="0 0 127 55.02"><defs><style>.cls-1{fill:#1d1d1b;}.cls-2{fill:url(#gradient-rainbow_2_copy);}</style><linearGradient id="gradient-rainbow_2_copy" x1="5.51" y1="44.35" x2="45.35" y2="3.65" gradientUnits="userSpaceOnUse"><stop offset="0.12" stop-color="#1d71b8"/><stop offset="0.32" stop-color="#951b81"/><stop offset="0.5" stop-color="#e30613"/><stop offset="0.56" stop-color="#e51915"/><stop offset="0.66" stop-color="#e94b1b"/><stop offset="0.67" stop-color="#e94e1b"/><stop offset="0.72" stop-color="#ee6b22"/><stop offset="0.84" stop-color="#f9b233"/><stop offset="1" stop-color="#ffed00"/></linearGradient></defs><g id="Layer_2" data-name="Layer 2"><g id="editable"><path d="M33.15,26.36h3.78V47.7H33.15Z"/><path d="M46.77,32c4,0,6.39,2.47,6.39,6.57V47.7h-3.6v-9c0-2.15-1-3.31-2.79-3.31S44,36.51,44,38.66v9H40.37V38.54C40.37,34.44,42.76,32,46.77,32Z"/><path d="M62.14,27h1v3.09h-.51c-1.26,0-1.8.53-1.8,1.8v1.64h2.46V36.8H60.85V47.7H57.52V36.8H55.21V33.49h2.31v-2C57.52,28.68,59.18,27,62.14,27Z"/><path d="M70.76,32.32h1.86v3.26H71.11c-1.3,0-1.83.52-1.83,1.86V47.7h-3.6V37.53C65.68,33.92,67.48,32.32,70.76,32.32Z"/><path d="M73.67,40a7.65,7.65,0,0,1,7.65-8,6.3,6.3,0,0,1,5,2.15l0-1.86h3.19V47.7H86.32l0-1.86a6.3,6.3,0,0,1-5,2.15A7.66,7.66,0,0,1,73.67,40Zm8.11,4.65A4.3,4.3,0,0,0,86.17,40a4.31,4.31,0,0,0-4.39-4.68A4.4,4.4,0,0,0,77.28,40,4.4,4.4,0,0,0,81.78,44.68Z"/><path d="M91.51,28.57h3.65L99.53,42.8l4.33-14.23h3.52L101.12,47.7H97.79Z"/><path d="M111.06,32.93h3.6V47.7h-3.6Z"/><path d="M118.1,47.7V44.59a21.81,21.81,0,0,0,2.88.23c1.6,0,2.33-.46,2.33-1.42,0-.76-.47-1.31-1.69-2.15l-1-.67c-1.89-1.31-2.7-2.53-2.7-4.22,0-2.64,2-4.24,5.35-4.24a15.51,15.51,0,0,1,2.41.2v2.85a14.23,14.23,0,0,0-2-.14c-1.54,0-2.32.46-2.32,1.27,0,.59.46,1.08,1.65,1.86l.93.64c2.1,1.43,3,2.77,3,4.57,0,2.85-2.15,4.53-5.84,4.53C120.37,47.9,119.24,47.82,118.1,47.7Z"/><path class="cls-1" d="M114.42,27.17a2.19,2.19,0,1,1-3.1,0A2.18,2.18,0,0,1,114.42,27.17Z"/><path class="cls-2" d="M47.68,5.94a2.57,2.57,0,0,0-3.4-.24,26.31,26.31,0,0,0-7.51-4.16h0l-.31-.1h0A26.41,26.41,0,0,0,27.85,0,26.73,26.73,0,0,0,22,.65a2.58,2.58,0,0,0-3.53.1A2.62,2.62,0,0,0,17.79,2,26.61,26.61,0,0,0,1.29,26.56a26.13,26.13,0,0,0,.16,2.8,2.68,2.68,0,0,0-.69.48,2.6,2.6,0,0,0-.76,2,2.14,2.14,0,0,0,.5,1.41,3.07,3.07,0,0,0,.24.29,2.63,2.63,0,0,0,1.69.76,26.54,26.54,0,0,0,5.29,9.61,2.58,2.58,0,0,0,3.59,3.46,26.39,26.39,0,0,0,12.34,5.44A2.58,2.58,0,1,0,25.35,50a25.05,25.05,0,0,1,2.18-25.21l.86-1.15a25.37,25.37,0,0,1,5-4.79A2.58,2.58,0,1,0,33.22,15a2.17,2.17,0,0,0-.31.37A25.21,25.21,0,0,1,30,13.63,2.56,2.56,0,0,0,29.91,12,25,25,0,0,1,43.14,8.19h.16a2.58,2.58,0,1,0,4.38-2.26ZM25.07,12.12a26.47,26.47,0,0,0-13.6,5.2,2.29,2.29,0,0,0-.29-.18A29.51,29.51,0,0,1,18.59,4.51a2.53,2.53,0,0,0,2.12.62,26.62,26.62,0,0,0,4.62,6.43A2.37,2.37,0,0,0,25.07,12.12ZM12.32,31.23a2.5,2.5,0,0,0-.5-.73,2.78,2.78,0,0,0-.52-.4,25,25,0,0,1,11.59-14,26.44,26.44,0,0,0-6.12,14A24.83,24.83,0,0,1,12.32,31.23ZM8.77,42.84a25.05,25.05,0,0,1-4.91-8.92,2.6,2.6,0,0,0,.54-.4,2.54,2.54,0,0,0,.51-.73c.86.11,1.72.17,2.58.2a2.53,2.53,0,0,0,.66,1.15,2.74,2.74,0,0,0,.62.47c-.09.68-.16,1.37-.2,2.08A27.26,27.26,0,0,0,9,42.75,1.51,1.51,0,0,0,8.77,42.84Zm0-21.13h0A31.62,31.62,0,0,0,8.88,30a2.44,2.44,0,0,0-.71.49,2.57,2.57,0,0,0-.65,1.06c-.8,0-1.59-.09-2.38-.19a2.61,2.61,0,0,0-.72-1.49A2.73,2.73,0,0,0,4,29.49,24.81,24.81,0,0,1,8.77,21.71Zm1.42,7.12A31.47,31.47,0,0,1,10,25.45,30.43,30.43,0,0,1,10.2,22a2.54,2.54,0,0,0,1.6-.73,2.59,2.59,0,0,0,.58-2.82,25.07,25.07,0,0,1,12.4-4.85A26.52,26.52,0,0,0,10.19,28.83Zm7-25a30.93,30.93,0,0,0-7.48,13,2.58,2.58,0,0,0-2,3.84,26.21,26.21,0,0,0-4.92,7.67c0-.6-.07-1.21-.07-1.81A25.12,25.12,0,0,1,17.22,3.83ZM12.3,46.26a2.58,2.58,0,0,0-.48-3,2.5,2.5,0,0,0-1.42-.73A24.53,24.53,0,0,1,10,36.76c0-.47.06-.94.11-1.41A31.12,31.12,0,0,0,21.59,50.87,25.09,25.09,0,0,1,12.3,46.26Zm-.9-11.77a3.19,3.19,0,0,0,.4-.33,2.58,2.58,0,0,0,.74-1.49,27.09,27.09,0,0,0,4.09-1c0,.53-.05,1.07-.05,1.61A26.62,26.62,0,0,0,22,49.37,29.59,29.59,0,0,1,11.4,34.49Zm10.08,4.75a26.7,26.7,0,0,0,1.63,9.18A25.2,25.2,0,0,1,18,33.29c0-.72,0-1.44.1-2.16a26.22,26.22,0,0,0,5.94-3.3A26.52,26.52,0,0,0,21.48,39.24Zm11.1-21.59a26.65,26.65,0,0,0-6.16,6.2,25.05,25.05,0,0,1-8.09,5.63A25,25,0,0,1,26,15a2.59,2.59,0,0,0,3.26-.14,26.69,26.69,0,0,0,3.23,1.92A2.52,2.52,0,0,0,32.58,17.65ZM29,10.83a2.56,2.56,0,0,0-2.57-.23A25.29,25.29,0,0,1,22,4.5l.09-.08A2.57,2.57,0,0,0,22.81,2,25,25,0,0,1,36,2.8h0l.29.11h0a24.74,24.74,0,0,1,7,3.83A26.41,26.41,0,0,0,29,10.83Z"/></g></g></svg>